<mxfile host="app.diagrams.net" modified="2023-11-23T18:05:10.724Z" agent="Mozilla/5.0 (Windows NT 10.0; Win64; x64) AppleWebKit/537.36 (KHTML, like Gecko) Chrome/119.0.0.0 Safari/537.36 Edg/119.0.0.0" etag="EhKkYn7q8CPHZjjCuosH" version="22.1.3" type="github">
  <diagram name="Page-1" id="ZIMLoURthfCVyL-6sCLF">
    <mxGraphModel dx="786" dy="477" grid="1" gridSize="10" guides="1" tooltips="1" connect="1" arrows="1" fold="1" page="1" pageScale="1" pageWidth="1169" pageHeight="827" math="0" shadow="0">
      <root>
        <mxCell id="0" />
        <mxCell id="1" parent="0" />
        <mxCell id="ySOHxrEfyNJoSDGC6EO2-1" style="edgeStyle=orthogonalEdgeStyle;rounded=0;orthogonalLoop=1;jettySize=auto;html=1;exitX=0.5;exitY=0.5;exitDx=0;exitDy=20;exitPerimeter=0;entryX=0.5;entryY=0;entryDx=0;entryDy=0;" edge="1" parent="1" source="ySOHxrEfyNJoSDGC6EO2-2" target="ySOHxrEfyNJoSDGC6EO2-4">
          <mxGeometry relative="1" as="geometry" />
        </mxCell>
        <mxCell id="ySOHxrEfyNJoSDGC6EO2-2" value="Start" style="html=1;dashed=0;whiteSpace=wrap;shape=mxgraph.dfd.start;fontSize=11;" vertex="1" parent="1">
          <mxGeometry x="40" y="40" width="100" height="40" as="geometry" />
        </mxCell>
        <mxCell id="ySOHxrEfyNJoSDGC6EO2-3" style="edgeStyle=orthogonalEdgeStyle;rounded=0;orthogonalLoop=1;jettySize=auto;html=1;exitX=0.5;exitY=1;exitDx=0;exitDy=0;entryX=0.5;entryY=0;entryDx=0;entryDy=0;" edge="1" parent="1" source="ySOHxrEfyNJoSDGC6EO2-4" target="ySOHxrEfyNJoSDGC6EO2-6">
          <mxGeometry relative="1" as="geometry" />
        </mxCell>
        <mxCell id="ySOHxrEfyNJoSDGC6EO2-4" value="&lt;br&gt;Enter Report Input" style="shape=manualInput;whiteSpace=wrap;html=1;fontSize=11;size=13;" vertex="1" parent="1">
          <mxGeometry x="40" y="100" width="100" height="50" as="geometry" />
        </mxCell>
        <mxCell id="ySOHxrEfyNJoSDGC6EO2-5" style="edgeStyle=orthogonalEdgeStyle;rounded=0;orthogonalLoop=1;jettySize=auto;html=1;exitX=0.5;exitY=1;exitDx=0;exitDy=0;entryX=0.5;entryY=0;entryDx=0;entryDy=0;" edge="1" parent="1" source="ySOHxrEfyNJoSDGC6EO2-6">
          <mxGeometry relative="1" as="geometry">
            <mxPoint x="90" y="240" as="targetPoint" />
          </mxGeometry>
        </mxCell>
        <mxCell id="ySOHxrEfyNJoSDGC6EO2-6" value="Get Parameters" style="whiteSpace=wrap;html=1;strokeWidth=1;fontSize=11;" vertex="1" parent="1">
          <mxGeometry x="40" y="170" width="100" height="50" as="geometry" />
        </mxCell>
        <mxCell id="ySOHxrEfyNJoSDGC6EO2-7" style="edgeStyle=orthogonalEdgeStyle;rounded=0;orthogonalLoop=1;jettySize=auto;html=1;exitX=0.5;exitY=1;exitDx=0;exitDy=0;entryX=0.5;entryY=0;entryDx=0;entryDy=0;" edge="1" parent="1">
          <mxGeometry relative="1" as="geometry">
            <mxPoint x="90" y="290" as="sourcePoint" />
            <mxPoint x="90" y="310" as="targetPoint" />
          </mxGeometry>
        </mxCell>
        <mxCell id="ySOHxrEfyNJoSDGC6EO2-8" style="edgeStyle=orthogonalEdgeStyle;rounded=0;orthogonalLoop=1;jettySize=auto;html=1;exitX=1;exitY=0.5;exitDx=0;exitDy=0;entryX=0;entryY=0.5;entryDx=0;entryDy=0;" edge="1" parent="1" target="ySOHxrEfyNJoSDGC6EO2-25">
          <mxGeometry relative="1" as="geometry">
            <mxPoint x="140" y="335" as="sourcePoint" />
          </mxGeometry>
        </mxCell>
        <mxCell id="ySOHxrEfyNJoSDGC6EO2-9" value="End" style="html=1;dashed=0;whiteSpace=wrap;shape=mxgraph.dfd.start;fontSize=11;" vertex="1" parent="1">
          <mxGeometry x="40" y="380" width="100" height="40" as="geometry" />
        </mxCell>
        <mxCell id="ySOHxrEfyNJoSDGC6EO2-10" style="edgeStyle=orthogonalEdgeStyle;rounded=0;orthogonalLoop=1;jettySize=auto;html=1;exitX=0.5;exitY=1;exitDx=0;exitDy=0;entryX=0.5;entryY=0.5;entryDx=0;entryDy=-20;entryPerimeter=0;" edge="1" parent="1" target="ySOHxrEfyNJoSDGC6EO2-9">
          <mxGeometry relative="1" as="geometry">
            <mxPoint x="90" y="360" as="sourcePoint" />
          </mxGeometry>
        </mxCell>
        <mxCell id="ySOHxrEfyNJoSDGC6EO2-11" style="edgeStyle=orthogonalEdgeStyle;rounded=0;orthogonalLoop=1;jettySize=auto;html=1;exitX=1;exitY=0.5;exitDx=0;exitDy=0;entryX=0;entryY=0.5;entryDx=0;entryDy=0;" edge="1" parent="1" source="ySOHxrEfyNJoSDGC6EO2-12" target="ySOHxrEfyNJoSDGC6EO2-13">
          <mxGeometry relative="1" as="geometry" />
        </mxCell>
        <mxCell id="ySOHxrEfyNJoSDGC6EO2-12" value="&lt;font style=&quot;font-size: 11px;&quot;&gt;Get Material Document&lt;/font&gt;" style="shape=process;whiteSpace=wrap;html=1;backgroundOutline=1;" vertex="1" parent="1">
          <mxGeometry x="40" y="240" width="100" height="50" as="geometry" />
        </mxCell>
        <mxCell id="ySOHxrEfyNJoSDGC6EO2-13" value="&lt;font style=&quot;font-size: 11px;&quot;&gt;A&lt;/font&gt;" style="ellipse;whiteSpace=wrap;html=1;aspect=fixed;" vertex="1" parent="1">
          <mxGeometry x="170" y="250" width="30" height="30" as="geometry" />
        </mxCell>
        <mxCell id="ySOHxrEfyNJoSDGC6EO2-14" style="edgeStyle=orthogonalEdgeStyle;rounded=0;orthogonalLoop=1;jettySize=auto;html=1;exitX=0.5;exitY=1;exitDx=0;exitDy=0;entryX=0.5;entryY=0;entryDx=0;entryDy=0;" edge="1" parent="1" source="ySOHxrEfyNJoSDGC6EO2-15" target="ySOHxrEfyNJoSDGC6EO2-17">
          <mxGeometry relative="1" as="geometry" />
        </mxCell>
        <mxCell id="ySOHxrEfyNJoSDGC6EO2-15" value="&lt;font style=&quot;font-size: 11px;&quot;&gt;A&lt;/font&gt;" style="ellipse;whiteSpace=wrap;html=1;aspect=fixed;" vertex="1" parent="1">
          <mxGeometry x="260" y="45" width="30" height="30" as="geometry" />
        </mxCell>
        <mxCell id="ySOHxrEfyNJoSDGC6EO2-16" style="edgeStyle=orthogonalEdgeStyle;rounded=0;orthogonalLoop=1;jettySize=auto;html=1;exitX=0.5;exitY=1;exitDx=0;exitDy=0;entryX=0.5;entryY=0;entryDx=0;entryDy=0;" edge="1" parent="1" source="ySOHxrEfyNJoSDGC6EO2-17" target="ySOHxrEfyNJoSDGC6EO2-19">
          <mxGeometry relative="1" as="geometry" />
        </mxCell>
        <mxCell id="ySOHxrEfyNJoSDGC6EO2-17" value="Get Mat Doc Info" style="whiteSpace=wrap;html=1;strokeWidth=1;fontSize=11;" vertex="1" parent="1">
          <mxGeometry x="225" y="100" width="100" height="50" as="geometry" />
        </mxCell>
        <mxCell id="ySOHxrEfyNJoSDGC6EO2-18" style="edgeStyle=orthogonalEdgeStyle;rounded=0;orthogonalLoop=1;jettySize=auto;html=1;exitX=0.5;exitY=1;exitDx=0;exitDy=0;entryX=0.5;entryY=0;entryDx=0;entryDy=0;" edge="1" parent="1" source="ySOHxrEfyNJoSDGC6EO2-19" target="ySOHxrEfyNJoSDGC6EO2-21">
          <mxGeometry relative="1" as="geometry" />
        </mxCell>
        <mxCell id="ySOHxrEfyNJoSDGC6EO2-19" value="Get Whole Set &lt;br&gt;TPO Info" style="whiteSpace=wrap;html=1;strokeWidth=1;fontSize=11;" vertex="1" parent="1">
          <mxGeometry x="225" y="170" width="100" height="50" as="geometry" />
        </mxCell>
        <mxCell id="ySOHxrEfyNJoSDGC6EO2-20" style="edgeStyle=orthogonalEdgeStyle;rounded=0;orthogonalLoop=1;jettySize=auto;html=1;exitX=0.5;exitY=1;exitDx=0;exitDy=0;entryX=0.5;entryY=0;entryDx=0;entryDy=0;" edge="1" parent="1" source="ySOHxrEfyNJoSDGC6EO2-21" target="ySOHxrEfyNJoSDGC6EO2-23">
          <mxGeometry relative="1" as="geometry" />
        </mxCell>
        <mxCell id="ySOHxrEfyNJoSDGC6EO2-21" value="Get Corresponding TPO" style="whiteSpace=wrap;html=1;strokeWidth=1;fontSize=11;" vertex="1" parent="1">
          <mxGeometry x="225" y="240" width="100" height="50" as="geometry" />
        </mxCell>
        <mxCell id="ySOHxrEfyNJoSDGC6EO2-22" style="edgeStyle=orthogonalEdgeStyle;rounded=0;orthogonalLoop=1;jettySize=auto;html=1;exitX=0.5;exitY=1;exitDx=0;exitDy=0;entryX=0.5;entryY=0;entryDx=0;entryDy=0;" edge="1" parent="1" source="ySOHxrEfyNJoSDGC6EO2-23" target="ySOHxrEfyNJoSDGC6EO2-24">
          <mxGeometry relative="1" as="geometry" />
        </mxCell>
        <mxCell id="ySOHxrEfyNJoSDGC6EO2-23" value="Post Whole Set &lt;br&gt;Mat Doc" style="whiteSpace=wrap;html=1;strokeWidth=1;fontSize=11;" vertex="1" parent="1">
          <mxGeometry x="225" y="310" width="100" height="50" as="geometry" />
        </mxCell>
        <mxCell id="ySOHxrEfyNJoSDGC6EO2-40" style="edgeStyle=orthogonalEdgeStyle;rounded=0;orthogonalLoop=1;jettySize=auto;html=1;exitX=0.5;exitY=1;exitDx=0;exitDy=0;entryX=0.5;entryY=0;entryDx=0;entryDy=0;" edge="1" parent="1" source="ySOHxrEfyNJoSDGC6EO2-24" target="ySOHxrEfyNJoSDGC6EO2-39">
          <mxGeometry relative="1" as="geometry" />
        </mxCell>
        <mxCell id="ySOHxrEfyNJoSDGC6EO2-24" value="Create DN for TPO" style="whiteSpace=wrap;html=1;strokeWidth=1;fontSize=11;" vertex="1" parent="1">
          <mxGeometry x="225" y="380" width="100" height="50" as="geometry" />
        </mxCell>
        <mxCell id="ySOHxrEfyNJoSDGC6EO2-25" value="&lt;font style=&quot;font-size: 11px;&quot;&gt;B&lt;/font&gt;" style="ellipse;whiteSpace=wrap;html=1;aspect=fixed;" vertex="1" parent="1">
          <mxGeometry x="170" y="320" width="30" height="30" as="geometry" />
        </mxCell>
        <mxCell id="ySOHxrEfyNJoSDGC6EO2-26" style="edgeStyle=orthogonalEdgeStyle;rounded=0;orthogonalLoop=1;jettySize=auto;html=1;exitX=0.5;exitY=1;exitDx=0;exitDy=0;entryX=0.5;entryY=0;entryDx=0;entryDy=0;" edge="1" parent="1" source="ySOHxrEfyNJoSDGC6EO2-27" target="ySOHxrEfyNJoSDGC6EO2-29">
          <mxGeometry relative="1" as="geometry" />
        </mxCell>
        <mxCell id="ySOHxrEfyNJoSDGC6EO2-47" style="edgeStyle=orthogonalEdgeStyle;rounded=0;orthogonalLoop=1;jettySize=auto;html=1;exitX=0.5;exitY=1;exitDx=0;exitDy=0;entryX=0.5;entryY=0;entryDx=0;entryDy=0;" edge="1" parent="1" source="ySOHxrEfyNJoSDGC6EO2-27">
          <mxGeometry relative="1" as="geometry">
            <mxPoint x="590" y="100" as="targetPoint" />
            <Array as="points">
              <mxPoint x="435" y="80" />
              <mxPoint x="590" y="80" />
            </Array>
          </mxGeometry>
        </mxCell>
        <mxCell id="ySOHxrEfyNJoSDGC6EO2-27" value="&lt;font style=&quot;font-size: 11px;&quot;&gt;B&lt;/font&gt;" style="ellipse;whiteSpace=wrap;html=1;aspect=fixed;" vertex="1" parent="1">
          <mxGeometry x="420" y="45" width="30" height="30" as="geometry" />
        </mxCell>
        <mxCell id="ySOHxrEfyNJoSDGC6EO2-28" style="edgeStyle=orthogonalEdgeStyle;rounded=0;orthogonalLoop=1;jettySize=auto;html=1;exitX=0.5;exitY=1;exitDx=0;exitDy=0;entryX=0.5;entryY=0;entryDx=0;entryDy=0;" edge="1" parent="1" source="ySOHxrEfyNJoSDGC6EO2-29" target="ySOHxrEfyNJoSDGC6EO2-31">
          <mxGeometry relative="1" as="geometry" />
        </mxCell>
        <mxCell id="ySOHxrEfyNJoSDGC6EO2-29" value="Get Output&amp;nbsp;" style="whiteSpace=wrap;html=1;strokeWidth=1;fontSize=11;" vertex="1" parent="1">
          <mxGeometry x="385" y="100" width="100" height="50" as="geometry" />
        </mxCell>
        <mxCell id="ySOHxrEfyNJoSDGC6EO2-45" style="edgeStyle=orthogonalEdgeStyle;rounded=0;orthogonalLoop=1;jettySize=auto;html=1;exitX=0.5;exitY=1;exitDx=0;exitDy=0;entryX=0.5;entryY=0;entryDx=0;entryDy=0;" edge="1" parent="1" source="ySOHxrEfyNJoSDGC6EO2-31" target="ySOHxrEfyNJoSDGC6EO2-42">
          <mxGeometry relative="1" as="geometry" />
        </mxCell>
        <mxCell id="ySOHxrEfyNJoSDGC6EO2-31" value="Set Field Catalog" style="whiteSpace=wrap;html=1;strokeWidth=1;fontSize=11;" vertex="1" parent="1">
          <mxGeometry x="385" y="170" width="100" height="50" as="geometry" />
        </mxCell>
        <mxCell id="ySOHxrEfyNJoSDGC6EO2-32" value="Display ALV" style="whiteSpace=wrap;html=1;strokeWidth=1;fontSize=11;" vertex="1" parent="1">
          <mxGeometry x="385" y="310" width="100" height="50" as="geometry" />
        </mxCell>
        <mxCell id="ySOHxrEfyNJoSDGC6EO2-33" value="End" style="html=1;dashed=0;whiteSpace=wrap;shape=mxgraph.dfd.start;fontSize=11;" vertex="1" parent="1">
          <mxGeometry x="225" y="520" width="100" height="40" as="geometry" />
        </mxCell>
        <mxCell id="ySOHxrEfyNJoSDGC6EO2-35" value="End" style="html=1;dashed=0;whiteSpace=wrap;shape=mxgraph.dfd.start;fontSize=11;" vertex="1" parent="1">
          <mxGeometry x="385" y="380" width="100" height="40" as="geometry" />
        </mxCell>
        <mxCell id="ySOHxrEfyNJoSDGC6EO2-36" style="edgeStyle=orthogonalEdgeStyle;rounded=0;orthogonalLoop=1;jettySize=auto;html=1;exitX=0.5;exitY=1;exitDx=0;exitDy=0;entryX=0.5;entryY=0.5;entryDx=0;entryDy=-20;entryPerimeter=0;" edge="1" parent="1" source="ySOHxrEfyNJoSDGC6EO2-32" target="ySOHxrEfyNJoSDGC6EO2-35">
          <mxGeometry relative="1" as="geometry" />
        </mxCell>
        <mxCell id="ySOHxrEfyNJoSDGC6EO2-37" value="&lt;font style=&quot;font-size: 11px;&quot;&gt;Set Display&lt;/font&gt;" style="shape=process;whiteSpace=wrap;html=1;backgroundOutline=1;" vertex="1" parent="1">
          <mxGeometry x="40" y="310" width="100" height="50" as="geometry" />
        </mxCell>
        <mxCell id="ySOHxrEfyNJoSDGC6EO2-39" value="Get CCTPO &lt;br&gt;Mat Doc" style="whiteSpace=wrap;html=1;strokeWidth=1;fontSize=11;" vertex="1" parent="1">
          <mxGeometry x="225" y="450" width="100" height="50" as="geometry" />
        </mxCell>
        <mxCell id="ySOHxrEfyNJoSDGC6EO2-41" style="edgeStyle=orthogonalEdgeStyle;rounded=0;orthogonalLoop=1;jettySize=auto;html=1;exitX=0.5;exitY=1;exitDx=0;exitDy=0;entryX=0.5;entryY=0.5;entryDx=0;entryDy=-20;entryPerimeter=0;" edge="1" parent="1" source="ySOHxrEfyNJoSDGC6EO2-39" target="ySOHxrEfyNJoSDGC6EO2-33">
          <mxGeometry relative="1" as="geometry" />
        </mxCell>
        <mxCell id="ySOHxrEfyNJoSDGC6EO2-46" style="edgeStyle=orthogonalEdgeStyle;rounded=0;orthogonalLoop=1;jettySize=auto;html=1;exitX=0.5;exitY=1;exitDx=0;exitDy=0;entryX=0.5;entryY=0;entryDx=0;entryDy=0;" edge="1" parent="1" source="ySOHxrEfyNJoSDGC6EO2-42" target="ySOHxrEfyNJoSDGC6EO2-32">
          <mxGeometry relative="1" as="geometry" />
        </mxCell>
        <mxCell id="ySOHxrEfyNJoSDGC6EO2-42" value="Set Layout" style="whiteSpace=wrap;html=1;strokeWidth=1;fontSize=11;" vertex="1" parent="1">
          <mxGeometry x="385" y="240" width="100" height="50" as="geometry" />
        </mxCell>
        <mxCell id="ySOHxrEfyNJoSDGC6EO2-51" style="edgeStyle=orthogonalEdgeStyle;rounded=0;orthogonalLoop=1;jettySize=auto;html=1;exitX=0.5;exitY=1;exitDx=0;exitDy=0;entryX=0.5;entryY=0;entryDx=0;entryDy=0;" edge="1" parent="1" source="ySOHxrEfyNJoSDGC6EO2-49" target="ySOHxrEfyNJoSDGC6EO2-50">
          <mxGeometry relative="1" as="geometry" />
        </mxCell>
        <mxCell id="ySOHxrEfyNJoSDGC6EO2-49" value="Send Email?" style="rhombus;whiteSpace=wrap;html=1;" vertex="1" parent="1">
          <mxGeometry x="550" y="100" width="80" height="80" as="geometry" />
        </mxCell>
        <mxCell id="ySOHxrEfyNJoSDGC6EO2-60" style="edgeStyle=orthogonalEdgeStyle;rounded=0;orthogonalLoop=1;jettySize=auto;html=1;exitX=0.5;exitY=1;exitDx=0;exitDy=0;entryX=0.5;entryY=0;entryDx=0;entryDy=0;" edge="1" parent="1" source="ySOHxrEfyNJoSDGC6EO2-50" target="ySOHxrEfyNJoSDGC6EO2-53">
          <mxGeometry relative="1" as="geometry" />
        </mxCell>
        <mxCell id="ySOHxrEfyNJoSDGC6EO2-50" value="Get Output with Error Status" style="whiteSpace=wrap;html=1;strokeWidth=1;fontSize=11;" vertex="1" parent="1">
          <mxGeometry x="540" y="200" width="100" height="50" as="geometry" />
        </mxCell>
        <mxCell id="ySOHxrEfyNJoSDGC6EO2-52" value="Y" style="text;html=1;align=center;verticalAlign=middle;resizable=0;points=[];autosize=1;strokeColor=none;fillColor=none;" vertex="1" parent="1">
          <mxGeometry x="555" y="170" width="30" height="30" as="geometry" />
        </mxCell>
        <mxCell id="ySOHxrEfyNJoSDGC6EO2-61" style="edgeStyle=orthogonalEdgeStyle;rounded=0;orthogonalLoop=1;jettySize=auto;html=1;exitX=0.5;exitY=1;exitDx=0;exitDy=0;entryX=0.5;entryY=0;entryDx=0;entryDy=0;" edge="1" parent="1" source="ySOHxrEfyNJoSDGC6EO2-53" target="ySOHxrEfyNJoSDGC6EO2-54">
          <mxGeometry relative="1" as="geometry" />
        </mxCell>
        <mxCell id="ySOHxrEfyNJoSDGC6EO2-53" value="Set Column Headers" style="whiteSpace=wrap;html=1;strokeWidth=1;fontSize=11;" vertex="1" parent="1">
          <mxGeometry x="540" y="270" width="100" height="50" as="geometry" />
        </mxCell>
        <mxCell id="ySOHxrEfyNJoSDGC6EO2-62" style="edgeStyle=orthogonalEdgeStyle;rounded=0;orthogonalLoop=1;jettySize=auto;html=1;exitX=0.5;exitY=1;exitDx=0;exitDy=0;entryX=0.5;entryY=0;entryDx=0;entryDy=0;" edge="1" parent="1" source="ySOHxrEfyNJoSDGC6EO2-54" target="ySOHxrEfyNJoSDGC6EO2-55">
          <mxGeometry relative="1" as="geometry" />
        </mxCell>
        <mxCell id="ySOHxrEfyNJoSDGC6EO2-54" value="Get Recipients" style="whiteSpace=wrap;html=1;strokeWidth=1;fontSize=11;" vertex="1" parent="1">
          <mxGeometry x="540" y="340" width="100" height="50" as="geometry" />
        </mxCell>
        <mxCell id="ySOHxrEfyNJoSDGC6EO2-55" value="Send Email with Excel Attachment" style="whiteSpace=wrap;html=1;strokeWidth=1;fontSize=11;" vertex="1" parent="1">
          <mxGeometry x="540" y="414" width="100" height="50" as="geometry" />
        </mxCell>
        <mxCell id="ySOHxrEfyNJoSDGC6EO2-58" value="End" style="html=1;dashed=0;whiteSpace=wrap;shape=mxgraph.dfd.start;fontSize=11;" vertex="1" parent="1">
          <mxGeometry x="540" y="490" width="100" height="40" as="geometry" />
        </mxCell>
        <mxCell id="ySOHxrEfyNJoSDGC6EO2-59" style="edgeStyle=orthogonalEdgeStyle;rounded=0;orthogonalLoop=1;jettySize=auto;html=1;exitX=0.5;exitY=1;exitDx=0;exitDy=0;entryX=0.5;entryY=0.5;entryDx=0;entryDy=-20;entryPerimeter=0;" edge="1" parent="1" source="ySOHxrEfyNJoSDGC6EO2-55" target="ySOHxrEfyNJoSDGC6EO2-58">
          <mxGeometry relative="1" as="geometry" />
        </mxCell>
      </root>
    </mxGraphModel>
  </diagram>
</mxfile>
